<mxfile host="app.diagrams.net" modified="2024-03-08T16:59:32.118Z" agent="Mozilla/5.0 (Windows NT 10.0; Win64; x64) AppleWebKit/537.36 (KHTML, like Gecko) Chrome/122.0.0.0 Safari/537.36" etag="x_8TEXeBwdQCM1gi-IyZ" version="24.0.2" type="device">
  <diagram name="Page-1" id="ZJhiSPtyVh_hCLQSkv6k">
    <mxGraphModel dx="2507" dy="1846" grid="1" gridSize="10" guides="1" tooltips="1" connect="1" arrows="1" fold="1" page="1" pageScale="1" pageWidth="827" pageHeight="1169" math="0" shadow="0">
      <root>
        <mxCell id="0" />
        <mxCell id="1" parent="0" />
        <mxCell id="t0qpb7sVX-qres-WD3tB-40" value="" style="rounded=1;whiteSpace=wrap;html=1;absoluteArcSize=1;arcSize=14;strokeWidth=2;" vertex="1" parent="1">
          <mxGeometry x="170" y="194.47" width="600" height="215.53" as="geometry" />
        </mxCell>
        <mxCell id="t0qpb7sVX-qres-WD3tB-44" style="edgeStyle=orthogonalEdgeStyle;rounded=0;orthogonalLoop=1;jettySize=auto;html=1;" edge="1" parent="1" source="Nyx_t2cHvo38zesXtoHp-1" target="Nyx_t2cHvo38zesXtoHp-3">
          <mxGeometry relative="1" as="geometry" />
        </mxCell>
        <mxCell id="t0qpb7sVX-qres-WD3tB-48" style="edgeStyle=orthogonalEdgeStyle;rounded=0;orthogonalLoop=1;jettySize=auto;html=1;" edge="1" parent="1" source="Nyx_t2cHvo38zesXtoHp-1">
          <mxGeometry relative="1" as="geometry">
            <mxPoint x="250" y="190" as="targetPoint" />
          </mxGeometry>
        </mxCell>
        <mxCell id="Nyx_t2cHvo38zesXtoHp-1" value="&lt;font style=&quot;font-size: 14px;&quot;&gt;Amazon EMR&lt;/font&gt;" style="sketch=0;outlineConnect=0;fontColor=#232F3E;gradientColor=none;strokeColor=#ffffff;fillColor=#232F3E;dashed=0;verticalLabelPosition=middle;verticalAlign=bottom;align=center;html=1;whiteSpace=wrap;fontSize=10;fontStyle=1;spacing=3;shape=mxgraph.aws4.productIcon;prIcon=mxgraph.aws4.emr;" parent="1" vertex="1">
          <mxGeometry x="210" y="37.5" width="80" height="115" as="geometry" />
        </mxCell>
        <mxCell id="t0qpb7sVX-qres-WD3tB-46" style="edgeStyle=orthogonalEdgeStyle;rounded=0;orthogonalLoop=1;jettySize=auto;html=1;entryX=0.5;entryY=0;entryDx=0;entryDy=0;" edge="1" parent="1" source="Nyx_t2cHvo38zesXtoHp-2" target="Nyx_t2cHvo38zesXtoHp-26">
          <mxGeometry relative="1" as="geometry" />
        </mxCell>
        <mxCell id="t0qpb7sVX-qres-WD3tB-56" style="edgeStyle=orthogonalEdgeStyle;rounded=0;orthogonalLoop=1;jettySize=auto;html=1;" edge="1" parent="1" source="Nyx_t2cHvo38zesXtoHp-2" target="Nyx_t2cHvo38zesXtoHp-27">
          <mxGeometry relative="1" as="geometry" />
        </mxCell>
        <mxCell id="Nyx_t2cHvo38zesXtoHp-2" value="&lt;font style=&quot;font-size: 14px;&quot;&gt;Amazon Athena&lt;/font&gt;" style="sketch=0;outlineConnect=0;fontColor=#232F3E;gradientColor=none;strokeColor=#ffffff;fillColor=#232F3E;dashed=0;verticalLabelPosition=middle;verticalAlign=bottom;align=center;html=1;whiteSpace=wrap;fontSize=10;fontStyle=1;spacing=3;shape=mxgraph.aws4.productIcon;prIcon=mxgraph.aws4.athena;" parent="1" vertex="1">
          <mxGeometry x="430" y="-150" width="80" height="120" as="geometry" />
        </mxCell>
        <mxCell id="t0qpb7sVX-qres-WD3tB-50" style="edgeStyle=orthogonalEdgeStyle;rounded=0;orthogonalLoop=1;jettySize=auto;html=1;" edge="1" parent="1" source="Nyx_t2cHvo38zesXtoHp-3">
          <mxGeometry relative="1" as="geometry">
            <mxPoint x="470" y="190" as="targetPoint" />
          </mxGeometry>
        </mxCell>
        <mxCell id="Nyx_t2cHvo38zesXtoHp-3" value="&lt;font style=&quot;font-size: 14px;&quot;&gt;AWS Glue&lt;/font&gt;" style="sketch=0;outlineConnect=0;fontColor=#232F3E;gradientColor=none;strokeColor=#ffffff;fillColor=#232F3E;dashed=0;verticalLabelPosition=middle;verticalAlign=bottom;align=center;html=1;whiteSpace=wrap;fontSize=10;fontStyle=1;spacing=3;shape=mxgraph.aws4.productIcon;prIcon=mxgraph.aws4.glue;" parent="1" vertex="1">
          <mxGeometry x="430" y="45" width="80" height="100" as="geometry" />
        </mxCell>
        <mxCell id="t0qpb7sVX-qres-WD3tB-25" style="edgeStyle=orthogonalEdgeStyle;rounded=0;orthogonalLoop=1;jettySize=auto;html=1;" edge="1" parent="1" source="Nyx_t2cHvo38zesXtoHp-5" target="t0qpb7sVX-qres-WD3tB-9">
          <mxGeometry relative="1" as="geometry" />
        </mxCell>
        <mxCell id="Nyx_t2cHvo38zesXtoHp-5" value="&lt;font style=&quot;font-size: 14px;&quot;&gt;Amazon S3&lt;/font&gt;" style="sketch=0;outlineConnect=0;fontColor=#232F3E;gradientColor=none;strokeColor=#ffffff;fillColor=#232F3E;dashed=0;verticalLabelPosition=middle;verticalAlign=bottom;align=center;html=1;whiteSpace=wrap;fontSize=10;fontStyle=1;spacing=3;shape=mxgraph.aws4.productIcon;prIcon=mxgraph.aws4.s3;" parent="1" vertex="1">
          <mxGeometry x="190" y="252.95999999999998" width="80" height="100" as="geometry" />
        </mxCell>
        <mxCell id="t0qpb7sVX-qres-WD3tB-45" value="" style="edgeStyle=orthogonalEdgeStyle;rounded=0;orthogonalLoop=1;jettySize=auto;html=1;" edge="1" parent="1" source="Nyx_t2cHvo38zesXtoHp-9" target="Nyx_t2cHvo38zesXtoHp-3">
          <mxGeometry relative="1" as="geometry" />
        </mxCell>
        <mxCell id="t0qpb7sVX-qres-WD3tB-49" style="edgeStyle=orthogonalEdgeStyle;rounded=0;orthogonalLoop=1;jettySize=auto;html=1;" edge="1" parent="1" source="Nyx_t2cHvo38zesXtoHp-9">
          <mxGeometry relative="1" as="geometry">
            <mxPoint x="660" y="190" as="targetPoint" />
          </mxGeometry>
        </mxCell>
        <mxCell id="Nyx_t2cHvo38zesXtoHp-9" value="&lt;font style=&quot;font-size: 14px;&quot;&gt;Amazon Redshift&lt;/font&gt;" style="sketch=0;outlineConnect=0;fontColor=#232F3E;gradientColor=none;strokeColor=#ffffff;fillColor=#232F3E;dashed=0;verticalLabelPosition=middle;verticalAlign=bottom;align=center;html=1;whiteSpace=wrap;fontSize=10;fontStyle=1;spacing=3;shape=mxgraph.aws4.productIcon;prIcon=mxgraph.aws4.redshift;" parent="1" vertex="1">
          <mxGeometry x="620" y="40" width="80" height="120" as="geometry" />
        </mxCell>
        <mxCell id="Nyx_t2cHvo38zesXtoHp-20" style="edgeStyle=orthogonalEdgeStyle;rounded=0;orthogonalLoop=1;jettySize=auto;html=1;" parent="1" source="Nyx_t2cHvo38zesXtoHp-16" target="Nyx_t2cHvo38zesXtoHp-5" edge="1">
          <mxGeometry relative="1" as="geometry" />
        </mxCell>
        <mxCell id="Nyx_t2cHvo38zesXtoHp-16" value="&lt;font style=&quot;font-size: 18px;&quot;&gt;Dataset Files&lt;/font&gt;" style="image;aspect=fixed;html=1;points=[];align=center;fontSize=12;image=img/lib/azure2/general/File.svg;" parent="1" vertex="1">
          <mxGeometry x="90" y="271.25" width="50.29" height="61.97" as="geometry" />
        </mxCell>
        <mxCell id="Nyx_t2cHvo38zesXtoHp-21" value="&lt;span style=&quot;background-color: rgb(255, 255, 255);&quot;&gt;&lt;font style=&quot;font-size: 18px;&quot;&gt;Web app data&lt;/font&gt;&lt;/span&gt;" style="verticalLabelPosition=bottom;aspect=fixed;html=1;shape=mxgraph.salesforce.web2;" parent="1" vertex="1">
          <mxGeometry x="-140" y="273.94" width="60" height="60" as="geometry" />
        </mxCell>
        <mxCell id="Nyx_t2cHvo38zesXtoHp-25" value="&lt;b&gt;&lt;font style=&quot;font-size: 14px;&quot;&gt;CONSULTAS INTERACTIVA&lt;/font&gt;&lt;/b&gt;" style="text;html=1;align=center;verticalAlign=middle;whiteSpace=wrap;rounded=0;" parent="1" vertex="1">
          <mxGeometry x="440" y="-190" width="60" height="30" as="geometry" />
        </mxCell>
        <mxCell id="Nyx_t2cHvo38zesXtoHp-26" value="&lt;b&gt;&lt;font style=&quot;font-size: 14px;&quot;&gt;DATA CATALOG&lt;/font&gt;&lt;/b&gt;" style="text;html=1;align=center;verticalAlign=middle;whiteSpace=wrap;rounded=0;" parent="1" vertex="1">
          <mxGeometry x="440" y="-2.842170943040401e-14" width="60" height="30" as="geometry" />
        </mxCell>
        <mxCell id="Nyx_t2cHvo38zesXtoHp-27" value="&lt;b&gt;&lt;font style=&quot;font-size: 14px;&quot;&gt;DATA WAREHOUSE&lt;/font&gt;&lt;/b&gt;" style="text;html=1;align=center;verticalAlign=middle;resizable=0;points=[];autosize=1;strokeColor=none;fillColor=none;" parent="1" vertex="1">
          <mxGeometry x="580" width="160" height="30" as="geometry" />
        </mxCell>
        <mxCell id="t0qpb7sVX-qres-WD3tB-1" value="&lt;b&gt;&lt;font style=&quot;font-size: 14px;&quot;&gt;FUENTE DE DATOS&lt;/font&gt;&lt;/b&gt;" style="text;html=1;align=center;verticalAlign=middle;whiteSpace=wrap;rounded=0;" vertex="1" parent="1">
          <mxGeometry x="-150" y="229.99999999999997" width="80" height="30" as="geometry" />
        </mxCell>
        <mxCell id="t0qpb7sVX-qres-WD3tB-53" style="edgeStyle=orthogonalEdgeStyle;rounded=0;orthogonalLoop=1;jettySize=auto;html=1;" edge="1" parent="1" target="t0qpb7sVX-qres-WD3tB-52">
          <mxGeometry relative="1" as="geometry">
            <mxPoint x="599.9999999999995" y="340" as="sourcePoint" />
            <mxPoint x="480" y="480" as="targetPoint" />
            <Array as="points">
              <mxPoint x="580" y="340" />
              <mxPoint x="580" y="480" />
            </Array>
          </mxGeometry>
        </mxCell>
        <mxCell id="t0qpb7sVX-qres-WD3tB-27" style="edgeStyle=orthogonalEdgeStyle;rounded=0;orthogonalLoop=1;jettySize=auto;html=1;" edge="1" parent="1" source="t0qpb7sVX-qres-WD3tB-4" target="t0qpb7sVX-qres-WD3tB-5">
          <mxGeometry relative="1" as="geometry" />
        </mxCell>
        <mxCell id="t0qpb7sVX-qres-WD3tB-4" value="&lt;font style=&quot;font-size: 14px;&quot;&gt;Amazon S3&lt;/font&gt;" style="sketch=0;outlineConnect=0;fontColor=#232F3E;gradientColor=none;strokeColor=#ffffff;fillColor=#232F3E;dashed=0;verticalLabelPosition=middle;verticalAlign=bottom;align=center;html=1;whiteSpace=wrap;fontSize=10;fontStyle=1;spacing=3;shape=mxgraph.aws4.productIcon;prIcon=mxgraph.aws4.s3;" vertex="1" parent="1">
          <mxGeometry x="490" y="252.95999999999998" width="80" height="100" as="geometry" />
        </mxCell>
        <mxCell id="t0qpb7sVX-qres-WD3tB-5" value="&lt;font style=&quot;font-size: 14px;&quot;&gt;Amazon S3&lt;/font&gt;" style="sketch=0;outlineConnect=0;fontColor=#232F3E;gradientColor=none;strokeColor=#ffffff;fillColor=#232F3E;dashed=0;verticalLabelPosition=middle;verticalAlign=bottom;align=center;html=1;whiteSpace=wrap;fontSize=10;fontStyle=1;spacing=3;shape=mxgraph.aws4.productIcon;prIcon=mxgraph.aws4.s3;" vertex="1" parent="1">
          <mxGeometry x="660" y="252.95999999999998" width="80" height="100" as="geometry" />
        </mxCell>
        <mxCell id="t0qpb7sVX-qres-WD3tB-26" style="edgeStyle=orthogonalEdgeStyle;rounded=0;orthogonalLoop=1;jettySize=auto;html=1;" edge="1" parent="1" source="t0qpb7sVX-qres-WD3tB-9" target="t0qpb7sVX-qres-WD3tB-4">
          <mxGeometry relative="1" as="geometry" />
        </mxCell>
        <mxCell id="t0qpb7sVX-qres-WD3tB-9" value="&lt;font style=&quot;font-size: 14px;&quot;&gt;Amazon S3&lt;/font&gt;" style="sketch=0;outlineConnect=0;fontColor=#232F3E;gradientColor=none;strokeColor=#ffffff;fillColor=#232F3E;dashed=0;verticalLabelPosition=middle;verticalAlign=bottom;align=center;html=1;whiteSpace=wrap;fontSize=10;fontStyle=1;spacing=3;shape=mxgraph.aws4.productIcon;prIcon=mxgraph.aws4.s3;" vertex="1" parent="1">
          <mxGeometry x="344" y="252.23999999999998" width="80" height="100" as="geometry" />
        </mxCell>
        <mxCell id="t0qpb7sVX-qres-WD3tB-15" style="edgeStyle=orthogonalEdgeStyle;rounded=0;orthogonalLoop=1;jettySize=auto;html=1;" edge="1" parent="1" source="t0qpb7sVX-qres-WD3tB-12" target="Nyx_t2cHvo38zesXtoHp-16">
          <mxGeometry relative="1" as="geometry" />
        </mxCell>
        <mxCell id="t0qpb7sVX-qres-WD3tB-12" value="Script" style="html=1;whiteSpace=wrap;strokeColor=none;fillColor=#0079D6;labelPosition=center;verticalLabelPosition=middle;verticalAlign=top;align=center;fontSize=12;outlineConnect=0;spacingTop=-6;fontColor=#FFFFFF;sketch=0;shape=mxgraph.sitemap.script;" vertex="1" parent="1">
          <mxGeometry x="-25" y="273.94" width="70" height="60" as="geometry" />
        </mxCell>
        <mxCell id="t0qpb7sVX-qres-WD3tB-13" value="&lt;b&gt;&lt;font style=&quot;font-size: 14px;&quot;&gt;INGESTA&lt;/font&gt;&lt;/b&gt;" style="text;html=1;align=center;verticalAlign=middle;resizable=0;points=[];autosize=1;strokeColor=none;fillColor=none;" vertex="1" parent="1">
          <mxGeometry x="-30" y="241.24999999999997" width="80" height="30" as="geometry" />
        </mxCell>
        <mxCell id="t0qpb7sVX-qres-WD3tB-14" style="edgeStyle=orthogonalEdgeStyle;rounded=0;orthogonalLoop=1;jettySize=auto;html=1;entryX=0;entryY=0.5;entryDx=0;entryDy=0;entryPerimeter=0;" edge="1" parent="1" source="Nyx_t2cHvo38zesXtoHp-21" target="t0qpb7sVX-qres-WD3tB-12">
          <mxGeometry relative="1" as="geometry" />
        </mxCell>
        <mxCell id="t0qpb7sVX-qres-WD3tB-18" value="&lt;b&gt;&lt;font style=&quot;font-size: 14px;&quot;&gt;TRANSIENT&lt;/font&gt;&lt;/b&gt;" style="text;html=1;align=center;verticalAlign=middle;resizable=0;points=[];autosize=1;strokeColor=none;fillColor=none;" vertex="1" parent="1">
          <mxGeometry x="185" y="358.03" width="100" height="30" as="geometry" />
        </mxCell>
        <mxCell id="t0qpb7sVX-qres-WD3tB-19" value="&lt;b&gt;&lt;font style=&quot;font-size: 14px;&quot;&gt;RAW&lt;/font&gt;&lt;/b&gt;" style="text;html=1;align=center;verticalAlign=middle;resizable=0;points=[];autosize=1;strokeColor=none;fillColor=none;" vertex="1" parent="1">
          <mxGeometry x="355" y="352.96" width="60" height="30" as="geometry" />
        </mxCell>
        <mxCell id="t0qpb7sVX-qres-WD3tB-20" value="&lt;b&gt;&lt;font style=&quot;font-size: 14px;&quot;&gt;TRUSTED&lt;/font&gt;&lt;/b&gt;" style="text;html=1;align=center;verticalAlign=middle;resizable=0;points=[];autosize=1;strokeColor=none;fillColor=none;" vertex="1" parent="1">
          <mxGeometry x="485" y="352.23999999999995" width="90" height="30" as="geometry" />
        </mxCell>
        <mxCell id="t0qpb7sVX-qres-WD3tB-21" value="&lt;b&gt;&lt;font style=&quot;font-size: 14px;&quot;&gt;REFINED&lt;/font&gt;&lt;/b&gt;" style="text;html=1;align=center;verticalAlign=middle;resizable=0;points=[];autosize=1;strokeColor=none;fillColor=none;" vertex="1" parent="1">
          <mxGeometry x="660" y="352.96" width="80" height="30" as="geometry" />
        </mxCell>
        <mxCell id="t0qpb7sVX-qres-WD3tB-23" value="&lt;font style=&quot;font-size: 14px;&quot;&gt;&lt;br&gt;&lt;/font&gt;&lt;div&gt;&lt;b&gt;&lt;font size=&quot;3&quot;&gt;ENRIQUECIMIENTO&amp;nbsp;&lt;/font&gt;&lt;/b&gt;&lt;/div&gt;&lt;div&gt;&lt;b style=&quot;background-color: initial;&quot;&gt;&lt;font size=&quot;3&quot;&gt;PROCESAMIENTO&lt;/font&gt;&lt;/b&gt;&lt;/div&gt;" style="text;html=1;align=center;verticalAlign=middle;resizable=0;points=[];autosize=1;strokeColor=none;fillColor=none;" vertex="1" parent="1">
          <mxGeometry x="160" y="-30" width="180" height="70" as="geometry" />
        </mxCell>
        <mxCell id="t0qpb7sVX-qres-WD3tB-51" style="edgeStyle=orthogonalEdgeStyle;rounded=0;orthogonalLoop=1;jettySize=auto;html=1;" edge="1" parent="1" source="t0qpb7sVX-qres-WD3tB-31" target="t0qpb7sVX-qres-WD3tB-52">
          <mxGeometry relative="1" as="geometry">
            <mxPoint x="307" y="460" as="targetPoint" />
            <Array as="points">
              <mxPoint x="340" y="338" />
              <mxPoint x="340" y="480" />
            </Array>
          </mxGeometry>
        </mxCell>
        <mxCell id="t0qpb7sVX-qres-WD3tB-31" value="&lt;font style=&quot;font-size: 14px;&quot;&gt;&lt;b style=&quot;&quot;&gt;ETL&lt;/b&gt;&lt;/font&gt;" style="sketch=0;html=1;aspect=fixed;strokeColor=none;shadow=0;fillColor=#3B8DF1;verticalAlign=top;labelPosition=center;verticalLabelPosition=bottom;shape=mxgraph.gcp2.process" vertex="1" parent="1">
          <mxGeometry x="285" y="318.03" width="42" height="50" as="geometry" />
        </mxCell>
        <mxCell id="t0qpb7sVX-qres-WD3tB-41" value="&lt;b&gt;&lt;font style=&quot;font-size: 14px;&quot;&gt;DATALAKE&lt;/font&gt;&lt;/b&gt;" style="text;html=1;align=center;verticalAlign=middle;whiteSpace=wrap;rounded=0;" vertex="1" parent="1">
          <mxGeometry x="190" y="200" width="60" height="30" as="geometry" />
        </mxCell>
        <mxCell id="t0qpb7sVX-qres-WD3tB-52" value="&lt;font style=&quot;font-size: 14px;&quot;&gt;Amazon EMR&lt;/font&gt;" style="sketch=0;outlineConnect=0;fontColor=#232F3E;gradientColor=none;strokeColor=#ffffff;fillColor=#232F3E;dashed=0;verticalLabelPosition=middle;verticalAlign=bottom;align=center;html=1;whiteSpace=wrap;fontSize=10;fontStyle=1;spacing=3;shape=mxgraph.aws4.productIcon;prIcon=mxgraph.aws4.emr;" vertex="1" parent="1">
          <mxGeometry x="410" y="430" width="80" height="120" as="geometry" />
        </mxCell>
        <mxCell id="t0qpb7sVX-qres-WD3tB-54" style="edgeStyle=orthogonalEdgeStyle;rounded=0;orthogonalLoop=1;jettySize=auto;html=1;entryX=0.465;entryY=-0.031;entryDx=0;entryDy=0;entryPerimeter=0;" edge="1" parent="1" target="t0qpb7sVX-qres-WD3tB-52">
          <mxGeometry relative="1" as="geometry">
            <mxPoint x="446.85714285714266" y="358.02999999999975" as="sourcePoint" />
          </mxGeometry>
        </mxCell>
        <mxCell id="t0qpb7sVX-qres-WD3tB-57" value="" style="shape=image;verticalLabelPosition=bottom;labelBackgroundColor=default;verticalAlign=top;aspect=fixed;imageAspect=0;image=https://png2.cleanpng.com/sh/68eda2328f03d02afae1ec0504c39b16/L0KzQYm3WME3N6R2jJH0aYP2gLBuTfFxaZRtfZ98cHH1e37vgfRwd6EykdN7bj3lebi0hPF1aV5miNNsaHWweLLrjB9xNZJ1RdZqdHGwg7Twhf5kbV5qit91YXKwg7FtlQdiepYyTdQCNkS6cbe3gcE3PmozTac5NkO2RIm4VcM1PGg9SqcAMES0Q3B3jvc=/kisspng-apache-spark-hadoop-yarn-big-data-apache-hadoop-ap-data-science-ermlab-software-5b7647af0a1669.5506334815344782550413.png;" vertex="1" parent="1">
          <mxGeometry x="100" y="10" width="60" height="60" as="geometry" />
        </mxCell>
        <mxCell id="t0qpb7sVX-qres-WD3tB-61" value="" style="shape=image;verticalLabelPosition=bottom;labelBackgroundColor=default;verticalAlign=top;aspect=fixed;imageAspect=0;image=https://png2.cleanpng.com/sh/129e78178cceb29c996a9b4301f5ac65/L0KzQYq3VsEzN6ZoR91yc4Pzfri0ggBia5lqRdpqZHBygH7vgfRwd6EyfNt8dILscsb7hfQubppxfeVEc4TofX7pifcubJIyTdY5MXG4SLa8UMFnP2EzTaYEM0W3RYq4VcYxO2kASKIBM0K7QnB3jvc=/kisspng-apache-hadoop-hadoop-distributed-filesystem-big-da-5d01a58e501f70.5493545915603890063282.png;" vertex="1" parent="1">
          <mxGeometry x="85" y="50" width="90" height="60.33" as="geometry" />
        </mxCell>
        <mxCell id="t0qpb7sVX-qres-WD3tB-62" value="" style="shape=image;verticalLabelPosition=bottom;labelBackgroundColor=default;verticalAlign=top;aspect=fixed;imageAspect=0;image=https://www.vhv.rs/dpng/d/75-753160_hue-hadoop-logo-hd-png-download.png;" vertex="1" parent="1">
          <mxGeometry x="90" y="110.33000000000001" width="85" height="25.21" as="geometry" />
        </mxCell>
        <mxCell id="-doj6FwYMf4vfdCiVe8A-8" value="&lt;font style=&quot;font-size: 14px;&quot;&gt;&lt;b style=&quot;&quot;&gt;ETL&lt;/b&gt;&lt;/font&gt;" style="sketch=0;html=1;aspect=fixed;strokeColor=none;shadow=0;fillColor=#3B8DF1;verticalAlign=top;labelPosition=center;verticalLabelPosition=bottom;shape=mxgraph.gcp2.process" vertex="1" parent="1">
          <mxGeometry x="429" y="312.96" width="42" height="50" as="geometry" />
        </mxCell>
        <mxCell id="-doj6FwYMf4vfdCiVe8A-9" value="&lt;font style=&quot;font-size: 14px;&quot;&gt;&lt;b style=&quot;&quot;&gt;ETL&lt;/b&gt;&lt;/font&gt;" style="sketch=0;html=1;aspect=fixed;strokeColor=none;shadow=0;fillColor=#3B8DF1;verticalAlign=top;labelPosition=center;verticalLabelPosition=bottom;shape=mxgraph.gcp2.process" vertex="1" parent="1">
          <mxGeometry x="600" y="312.96" width="42" height="50" as="geometry" />
        </mxCell>
      </root>
    </mxGraphModel>
  </diagram>
</mxfile>
